<svg xmlns="http://www.w3.org/2000/svg" xmlns:xlink="http://www.w3.org/1999/xlink" width="500" zoomAndPan="magnify" viewBox="0 0 375 374.999991" height="500" preserveAspectRatio="xMidYMid meet" version="1.0"><defs><g/><clipPath id="d71e3ae45a"><path d="M 234 40.675781 L 239 40.675781 L 239 78 L 234 78 Z M 234 40.675781 " clip-rule="nonzero"/></clipPath><clipPath id="9466210a12"><path d="M 215 40.675781 L 220 40.675781 L 220 78 L 215 78 Z M 215 40.675781 " clip-rule="nonzero"/></clipPath><clipPath id="e8ac389db7"><path d="M 195 40.675781 L 200 40.675781 L 200 78 L 195 78 Z M 195 40.675781 " clip-rule="nonzero"/></clipPath><clipPath id="0cf7f977be"><path d="M 175 40.675781 L 180 40.675781 L 180 78 L 175 78 Z M 175 40.675781 " clip-rule="nonzero"/></clipPath><clipPath id="749eb2bf22"><path d="M 156 40.675781 L 160 40.675781 L 160 78 L 156 78 Z M 156 40.675781 " clip-rule="nonzero"/></clipPath><clipPath id="b3f23b5c85"><path d="M 136 40.675781 L 141 40.675781 L 141 78 L 136 78 Z M 136 40.675781 " clip-rule="nonzero"/></clipPath><clipPath id="623d2890d9"><path d="M 234 195 L 239 195 L 239 232.675781 L 234 232.675781 Z M 234 195 " clip-rule="nonzero"/></clipPath><clipPath id="4194690286"><path d="M 215 195 L 220 195 L 220 232.675781 L 215 232.675781 Z M 215 195 " clip-rule="nonzero"/></clipPath><clipPath id="48e2658945"><path d="M 195 195 L 200 195 L 200 232.675781 L 195 232.675781 Z M 195 195 " clip-rule="nonzero"/></clipPath><clipPath id="16b7c34de9"><path d="M 175 195 L 180 195 L 180 232.675781 L 175 232.675781 Z M 175 195 " clip-rule="nonzero"/></clipPath><clipPath id="e7537986b1"><path d="M 156 195 L 160 195 L 160 232.675781 L 156 232.675781 Z M 156 195 " clip-rule="nonzero"/></clipPath><clipPath id="210f049487"><path d="M 136 195 L 141 195 L 141 232.675781 L 136 232.675781 Z M 136 195 " clip-rule="nonzero"/></clipPath><clipPath id="93fcb1262d"><path d="M 91.492188 85 L 129 85 L 129 90 L 91.492188 90 Z M 91.492188 85 " clip-rule="nonzero"/></clipPath><clipPath id="30104ae440"><path d="M 91.492188 105 L 129 105 L 129 110 L 91.492188 110 Z M 91.492188 105 " clip-rule="nonzero"/></clipPath><clipPath id="82b9edbb83"><path d="M 91.492188 125 L 129 125 L 129 129 L 91.492188 129 Z M 91.492188 125 " clip-rule="nonzero"/></clipPath><clipPath id="790b9b66d7"><path d="M 91.492188 144 L 129 144 L 129 149 L 91.492188 149 Z M 91.492188 144 " clip-rule="nonzero"/></clipPath><clipPath id="8c97f26500"><path d="M 91.492188 164 L 129 164 L 129 169 L 91.492188 169 Z M 91.492188 164 " clip-rule="nonzero"/></clipPath><clipPath id="75858cb1b0"><path d="M 91.492188 184 L 129 184 L 129 188 L 91.492188 188 Z M 91.492188 184 " clip-rule="nonzero"/></clipPath><clipPath id="d4a334474d"><path d="M 246 85 L 283.492188 85 L 283.492188 90 L 246 90 Z M 246 85 " clip-rule="nonzero"/></clipPath><clipPath id="e80d3fe8b1"><path d="M 246 105 L 283.492188 105 L 283.492188 110 L 246 110 Z M 246 105 " clip-rule="nonzero"/></clipPath><clipPath id="d516992723"><path d="M 246 125 L 283.492188 125 L 283.492188 129 L 246 129 Z M 246 125 " clip-rule="nonzero"/></clipPath><clipPath id="03a3134f49"><path d="M 246 144 L 283.492188 144 L 283.492188 149 L 246 149 Z M 246 144 " clip-rule="nonzero"/></clipPath><clipPath id="12a6595d22"><path d="M 246 164 L 283.492188 164 L 283.492188 169 L 246 169 Z M 246 164 " clip-rule="nonzero"/></clipPath><clipPath id="84217c909f"><path d="M 246 184 L 283.492188 184 L 283.492188 188 L 246 188 Z M 246 184 " clip-rule="nonzero"/></clipPath></defs><path fill="#37404c" d="M 238.101562 103.503906 L 238.101562 170.074219 C 238.101562 172.238281 236.351562 173.992188 234.1875 173.992188 L 228.746094 173.992188 C 226.582031 173.992188 224.828125 175.746094 224.828125 177.910156 L 224.828125 183.351562 C 224.828125 185.515625 223.074219 187.265625 220.910156 187.265625 L 154.339844 187.265625 C 152.175781 187.265625 150.421875 185.515625 150.421875 183.351562 L 150.421875 177.910156 C 150.421875 175.746094 148.667969 173.992188 146.503906 173.992188 L 141.0625 173.992188 C 138.898438 173.992188 137.144531 172.238281 137.144531 170.074219 L 137.144531 103.503906 C 137.144531 101.339844 138.898438 99.585938 141.0625 99.585938 L 146.503906 99.585938 C 148.667969 99.585938 150.421875 97.832031 150.421875 95.667969 L 150.421875 90.226562 C 150.421875 88.0625 152.175781 86.308594 154.339844 86.308594 L 220.910156 86.308594 C 223.074219 86.308594 224.828125 88.0625 224.828125 90.226562 L 224.828125 95.667969 C 224.828125 97.832031 226.582031 99.585938 228.746094 99.585938 L 234.1875 99.585938 C 236.351562 99.585938 238.101562 101.339844 238.101562 103.503906 " fill-opacity="1" fill-rule="nonzero"/><path fill="#3f76c3" d="M 238.101562 170.074219 L 238.101562 103.503906 C 238.101562 101.339844 236.351562 99.585938 234.1875 99.585938 L 228.746094 99.585938 C 226.582031 99.585938 224.828125 97.832031 224.828125 95.667969 L 224.828125 90.226562 C 224.828125 88.0625 223.074219 86.308594 220.910156 86.308594 L 154.339844 86.308594 C 152.175781 86.308594 150.421875 88.0625 150.421875 90.226562 L 150.421875 95.667969 C 150.421875 97.832031 148.667969 99.585938 146.503906 99.585938 L 141.0625 99.585938 C 138.898438 99.585938 137.144531 101.339844 137.144531 103.503906 L 137.144531 170.074219 C 137.144531 172.238281 138.898438 173.992188 141.0625 173.992188 L 146.503906 173.992188 C 148.667969 173.992188 150.421875 175.746094 150.421875 177.910156 L 150.421875 183.351562 C 150.421875 185.515625 152.175781 187.265625 154.339844 187.265625 L 220.910156 187.265625 C 223.074219 187.265625 224.828125 185.515625 224.828125 183.351562 L 224.828125 177.910156 C 224.828125 175.746094 226.582031 173.992188 228.746094 173.992188 L 234.1875 173.992188 C 236.351562 173.992188 238.101562 172.238281 238.101562 170.074219 Z M 138.390625 208.261719 L 119.914062 208.261719 C 117.824219 208.261719 116.148438 206.585938 116.148438 204.5 L 116.148438 69.078125 C 116.148438 66.988281 117.824219 65.3125 119.914062 65.3125 L 255.335938 65.3125 C 257.421875 65.3125 259.097656 66.988281 259.097656 69.078125 L 259.097656 204.5 C 259.097656 206.585938 257.421875 208.261719 255.335938 208.261719 L 138.390625 208.261719 " fill-opacity="1" fill-rule="nonzero"/><path fill="#3f76c3" d="M 255.335938 65.3125 L 187.625 65.3125 L 187.625 86.308594 L 220.910156 86.308594 C 223.074219 86.308594 224.828125 88.0625 224.828125 90.226562 L 224.828125 95.667969 C 224.828125 97.832031 226.582031 99.585938 228.746094 99.585938 L 234.1875 99.585938 C 236.351562 99.585938 238.101562 101.339844 238.101562 103.503906 L 238.101562 170.074219 C 238.101562 172.238281 236.351562 173.992188 234.1875 173.992188 L 228.746094 173.992188 C 226.582031 173.992188 224.828125 175.746094 224.828125 177.910156 L 224.828125 183.351562 C 224.828125 185.515625 223.074219 187.265625 220.910156 187.265625 L 187.625 187.265625 L 187.625 208.261719 L 255.335938 208.261719 C 257.421875 208.261719 259.097656 206.585938 259.097656 204.5 L 259.097656 69.078125 C 259.097656 66.988281 257.421875 65.3125 255.335938 65.3125 " fill-opacity="1" fill-rule="nonzero"/><path fill="#37404c" d="M 220.910156 187.265625 C 223.074219 187.265625 224.828125 185.515625 224.828125 183.351562 L 224.828125 177.910156 C 224.828125 175.746094 226.582031 173.992188 228.746094 173.992188 L 234.1875 173.992188 C 236.351562 173.992188 238.101562 172.238281 238.101562 170.074219 L 238.101562 103.503906 C 238.101562 101.339844 236.351562 99.585938 234.1875 99.585938 L 228.746094 99.585938 C 226.582031 99.585938 224.828125 97.832031 224.828125 95.667969 L 224.828125 90.226562 C 224.828125 88.0625 223.074219 86.308594 220.910156 86.308594 L 187.625 86.308594 L 187.625 187.265625 L 220.910156 187.265625 " fill-opacity="1" fill-rule="nonzero"/><g clip-path="url(#d71e3ae45a)"><path fill="#37404c" d="M 236.859375 77.59375 C 235.824219 77.59375 234.980469 76.75 234.980469 75.707031 L 234.980469 42.640625 C 234.980469 41.597656 235.824219 40.753906 236.859375 40.753906 C 237.902344 40.753906 238.746094 41.597656 238.746094 42.640625 L 238.746094 75.707031 C 238.746094 76.75 237.902344 77.59375 236.859375 77.59375 " fill-opacity="1" fill-rule="nonzero"/></g><g clip-path="url(#9466210a12)"><path fill="#37404c" d="M 217.164062 77.59375 C 216.121094 77.59375 215.277344 76.75 215.277344 75.707031 L 215.277344 42.640625 C 215.277344 41.597656 216.121094 40.753906 217.164062 40.753906 C 218.199219 40.753906 219.050781 41.597656 219.050781 42.640625 L 219.050781 75.707031 C 219.050781 76.75 218.199219 77.59375 217.164062 77.59375 " fill-opacity="1" fill-rule="nonzero"/></g><g clip-path="url(#e8ac389db7)"><path fill="#37404c" d="M 197.460938 77.59375 C 196.425781 77.59375 195.585938 76.75 195.585938 75.707031 L 195.585938 42.640625 C 195.585938 41.597656 196.425781 40.753906 197.460938 40.753906 C 198.503906 40.753906 199.347656 41.597656 199.347656 42.640625 L 199.347656 75.707031 C 199.347656 76.75 198.503906 77.59375 197.460938 77.59375 " fill-opacity="1" fill-rule="nonzero"/></g><g clip-path="url(#0cf7f977be)"><path fill="#37404c" d="M 177.789062 77.59375 C 176.742188 77.59375 175.898438 76.75 175.898438 75.707031 L 175.898438 42.640625 C 175.898438 41.597656 176.742188 40.753906 177.789062 40.753906 C 178.820312 40.753906 179.664062 41.597656 179.664062 42.640625 L 179.664062 75.707031 C 179.664062 76.75 178.820312 77.59375 177.789062 77.59375 " fill-opacity="1" fill-rule="nonzero"/></g><g clip-path="url(#749eb2bf22)"><path fill="#37404c" d="M 158.085938 77.59375 C 157.050781 77.59375 156.207031 76.75 156.207031 75.707031 L 156.207031 42.640625 C 156.207031 41.597656 157.050781 40.753906 158.085938 40.753906 C 159.128906 40.753906 159.972656 41.597656 159.972656 42.640625 L 159.972656 75.707031 C 159.972656 76.75 159.128906 77.59375 158.085938 77.59375 " fill-opacity="1" fill-rule="nonzero"/></g><g clip-path="url(#b3f23b5c85)"><path fill="#37404c" d="M 138.390625 77.59375 C 137.347656 77.59375 136.503906 76.75 136.503906 75.707031 L 136.503906 42.640625 C 136.503906 41.597656 137.347656 40.753906 138.390625 40.753906 C 139.425781 40.753906 140.269531 41.597656 140.269531 42.640625 L 140.269531 75.707031 C 140.269531 76.75 139.425781 77.59375 138.390625 77.59375 " fill-opacity="1" fill-rule="nonzero"/></g><g clip-path="url(#623d2890d9)"><path fill="#37404c" d="M 236.859375 232.84375 C 235.824219 232.84375 234.980469 232 234.980469 230.964844 L 234.980469 197.871094 C 234.980469 196.828125 235.824219 195.992188 236.859375 195.992188 C 237.902344 195.992188 238.746094 196.828125 238.746094 197.871094 L 238.746094 230.964844 C 238.746094 232 237.902344 232.84375 236.859375 232.84375 " fill-opacity="1" fill-rule="nonzero"/></g><g clip-path="url(#4194690286)"><path fill="#37404c" d="M 217.164062 232.84375 C 216.121094 232.84375 215.277344 232 215.277344 230.964844 L 215.277344 197.871094 C 215.277344 196.828125 216.121094 195.992188 217.164062 195.992188 C 218.199219 195.992188 219.050781 196.828125 219.050781 197.871094 L 219.050781 230.964844 C 219.050781 232 218.199219 232.84375 217.164062 232.84375 " fill-opacity="1" fill-rule="nonzero"/></g><g clip-path="url(#48e2658945)"><path fill="#37404c" d="M 197.460938 232.84375 C 196.425781 232.84375 195.585938 232 195.585938 230.964844 L 195.585938 197.871094 C 195.585938 196.828125 196.425781 195.992188 197.460938 195.992188 C 198.503906 195.992188 199.347656 196.828125 199.347656 197.871094 L 199.347656 230.964844 C 199.347656 232 198.503906 232.84375 197.460938 232.84375 " fill-opacity="1" fill-rule="nonzero"/></g><g clip-path="url(#16b7c34de9)"><path fill="#37404c" d="M 177.789062 232.84375 C 176.742188 232.84375 175.898438 232 175.898438 230.964844 L 175.898438 197.871094 C 175.898438 196.828125 176.742188 195.992188 177.789062 195.992188 C 178.820312 195.992188 179.664062 196.828125 179.664062 197.871094 L 179.664062 230.964844 C 179.664062 232 178.820312 232.84375 177.789062 232.84375 " fill-opacity="1" fill-rule="nonzero"/></g><g clip-path="url(#e7537986b1)"><path fill="#37404c" d="M 158.085938 232.84375 C 157.050781 232.84375 156.207031 232 156.207031 230.964844 L 156.207031 197.871094 C 156.207031 196.828125 157.050781 195.992188 158.085938 195.992188 C 159.128906 195.992188 159.972656 196.828125 159.972656 197.871094 L 159.972656 230.964844 C 159.972656 232 159.128906 232.84375 158.085938 232.84375 " fill-opacity="1" fill-rule="nonzero"/></g><g clip-path="url(#210f049487)"><path fill="#37404c" d="M 138.390625 232.84375 C 137.347656 232.84375 136.503906 232 136.503906 230.964844 L 136.503906 197.871094 C 136.503906 196.828125 137.347656 195.992188 138.390625 195.992188 C 139.425781 195.992188 140.269531 196.828125 140.269531 197.871094 L 140.269531 230.964844 C 140.269531 232 139.425781 232.84375 138.390625 232.84375 " fill-opacity="1" fill-rule="nonzero"/></g><g clip-path="url(#93fcb1262d)"><path fill="#37404c" d="M 126.542969 89.433594 L 93.457031 89.433594 C 92.414062 89.433594 91.570312 88.589844 91.570312 87.554688 C 91.570312 86.511719 92.414062 85.667969 93.457031 85.667969 L 126.542969 85.667969 C 127.585938 85.667969 128.429688 86.511719 128.429688 87.554688 C 128.429688 88.589844 127.585938 89.433594 126.542969 89.433594 " fill-opacity="1" fill-rule="nonzero"/></g><g clip-path="url(#30104ae440)"><path fill="#37404c" d="M 126.542969 109.136719 L 93.457031 109.136719 C 92.414062 109.136719 91.570312 108.292969 91.570312 107.25 C 91.570312 106.214844 92.414062 105.371094 93.457031 105.371094 L 126.542969 105.371094 C 127.585938 105.371094 128.429688 106.214844 128.429688 107.25 C 128.429688 108.292969 127.585938 109.136719 126.542969 109.136719 " fill-opacity="1" fill-rule="nonzero"/></g><g clip-path="url(#82b9edbb83)"><path fill="#37404c" d="M 126.542969 128.828125 L 93.457031 128.828125 C 92.414062 128.828125 91.570312 127.984375 91.570312 126.953125 C 91.570312 125.90625 92.414062 125.0625 93.457031 125.0625 L 126.542969 125.0625 C 127.585938 125.0625 128.429688 125.90625 128.429688 126.953125 C 128.429688 127.984375 127.585938 128.828125 126.542969 128.828125 " fill-opacity="1" fill-rule="nonzero"/></g><g clip-path="url(#790b9b66d7)"><path fill="#37404c" d="M 126.542969 148.511719 L 93.457031 148.511719 C 92.414062 148.511719 91.570312 147.667969 91.570312 146.625 C 91.570312 145.589844 92.414062 144.75 93.457031 144.75 L 126.542969 144.75 C 127.585938 144.75 128.429688 145.589844 128.429688 146.625 C 128.429688 147.667969 127.585938 148.511719 126.542969 148.511719 " fill-opacity="1" fill-rule="nonzero"/></g><g clip-path="url(#8c97f26500)"><path fill="#37404c" d="M 126.542969 168.207031 L 93.457031 168.207031 C 92.414062 168.207031 91.570312 167.371094 91.570312 166.328125 C 91.570312 165.285156 92.414062 164.441406 93.457031 164.441406 L 126.542969 164.441406 C 127.585938 164.441406 128.429688 165.285156 128.429688 166.328125 C 128.429688 167.371094 127.585938 168.207031 126.542969 168.207031 " fill-opacity="1" fill-rule="nonzero"/></g><g clip-path="url(#75858cb1b0)"><path fill="#37404c" d="M 126.542969 187.910156 L 93.457031 187.910156 C 92.414062 187.910156 91.570312 187.066406 91.570312 186.023438 C 91.570312 184.988281 92.414062 184.144531 93.457031 184.144531 L 126.542969 184.144531 C 127.585938 184.144531 128.429688 184.988281 128.429688 186.023438 C 128.429688 187.066406 127.585938 187.910156 126.542969 187.910156 " fill-opacity="1" fill-rule="nonzero"/></g><g clip-path="url(#d4a334474d)"><path fill="#37404c" d="M 281.78125 89.433594 L 248.707031 89.433594 C 247.664062 89.433594 246.820312 88.589844 246.820312 87.554688 C 246.820312 86.511719 247.664062 85.667969 248.707031 85.667969 L 281.78125 85.667969 C 282.816406 85.667969 283.660156 86.511719 283.660156 87.554688 C 283.660156 88.589844 282.816406 89.433594 281.78125 89.433594 " fill-opacity="1" fill-rule="nonzero"/></g><g clip-path="url(#e80d3fe8b1)"><path fill="#37404c" d="M 281.78125 109.136719 L 248.707031 109.136719 C 247.664062 109.136719 246.820312 108.292969 246.820312 107.25 C 246.820312 106.214844 247.664062 105.371094 248.707031 105.371094 L 281.78125 105.371094 C 282.816406 105.371094 283.660156 106.214844 283.660156 107.25 C 283.660156 108.292969 282.816406 109.136719 281.78125 109.136719 " fill-opacity="1" fill-rule="nonzero"/></g><g clip-path="url(#d516992723)"><path fill="#37404c" d="M 281.78125 128.828125 L 248.707031 128.828125 C 247.664062 128.828125 246.820312 127.984375 246.820312 126.953125 C 246.820312 125.90625 247.664062 125.0625 248.707031 125.0625 L 281.78125 125.0625 C 282.816406 125.0625 283.660156 125.90625 283.660156 126.953125 C 283.660156 127.984375 282.816406 128.828125 281.78125 128.828125 " fill-opacity="1" fill-rule="nonzero"/></g><g clip-path="url(#03a3134f49)"><path fill="#37404c" d="M 281.78125 148.511719 L 248.707031 148.511719 C 247.664062 148.511719 246.820312 147.667969 246.820312 146.625 C 246.820312 145.589844 247.664062 144.75 248.707031 144.75 L 281.78125 144.75 C 282.816406 144.75 283.660156 145.589844 283.660156 146.625 C 283.660156 147.667969 282.816406 148.511719 281.78125 148.511719 " fill-opacity="1" fill-rule="nonzero"/></g><g clip-path="url(#12a6595d22)"><path fill="#37404c" d="M 281.78125 168.207031 L 248.707031 168.207031 C 247.664062 168.207031 246.820312 167.371094 246.820312 166.328125 C 246.820312 165.285156 247.664062 164.441406 248.707031 164.441406 L 281.78125 164.441406 C 282.816406 164.441406 283.660156 165.285156 283.660156 166.328125 C 283.660156 167.371094 282.816406 168.207031 281.78125 168.207031 " fill-opacity="1" fill-rule="nonzero"/></g><g clip-path="url(#84217c909f)"><path fill="#37404c" d="M 281.78125 187.910156 L 248.707031 187.910156 C 247.664062 187.910156 246.820312 187.066406 246.820312 186.023438 C 246.820312 184.988281 247.664062 184.144531 248.707031 184.144531 L 281.78125 184.144531 C 282.816406 184.144531 283.660156 184.988281 283.660156 186.023438 C 283.660156 187.066406 282.816406 187.910156 281.78125 187.910156 " fill-opacity="1" fill-rule="nonzero"/></g><path fill="#ffffff" d="M 155.621094 114.84375 C 154.578125 114.84375 153.734375 114 153.734375 112.957031 L 153.734375 107.285156 C 153.734375 106.253906 154.578125 105.410156 155.621094 105.410156 C 156.65625 105.410156 157.5 106.253906 157.5 107.285156 L 157.5 112.957031 C 157.5 114 156.65625 114.84375 155.621094 114.84375 " fill-opacity="1" fill-rule="nonzero"/><path fill="#ffffff" d="M 171.628906 114.84375 C 170.585938 114.84375 169.742188 114 169.742188 112.957031 L 169.742188 107.285156 C 169.742188 106.253906 170.585938 105.410156 171.628906 105.410156 C 172.664062 105.410156 173.503906 106.253906 173.503906 107.285156 L 173.503906 112.957031 C 173.503906 114 172.664062 114.84375 171.628906 114.84375 " fill-opacity="1" fill-rule="nonzero"/><path fill="#ffffff" d="M 187.613281 114.84375 C 186.570312 114.84375 185.726562 114 185.726562 112.957031 L 185.726562 107.285156 C 185.726562 106.253906 186.570312 105.410156 187.613281 105.410156 C 188.660156 105.410156 189.5 106.253906 189.5 107.285156 L 189.5 112.957031 C 189.5 114 188.660156 114.84375 187.613281 114.84375 " fill-opacity="1" fill-rule="nonzero"/><path fill="#fbf0f0" d="M 203.621094 114.84375 C 202.578125 114.84375 201.742188 114 201.742188 112.957031 L 201.742188 107.285156 C 201.742188 106.253906 202.578125 105.410156 203.621094 105.410156 C 204.664062 105.410156 205.507812 106.253906 205.507812 107.285156 L 205.507812 112.957031 C 205.507812 114 204.664062 114.84375 203.621094 114.84375 " fill-opacity="1" fill-rule="nonzero"/><path fill="#fbf0f0" d="M 219.625 114.84375 C 218.59375 114.84375 217.75 114 217.75 112.957031 L 217.75 107.285156 C 217.75 106.253906 218.59375 105.410156 219.625 105.410156 C 220.671875 105.410156 221.511719 106.253906 221.511719 107.285156 L 221.511719 112.957031 C 221.511719 114 220.671875 114.84375 219.625 114.84375 " fill-opacity="1" fill-rule="nonzero"/><path fill="#ffffff" d="M 155.621094 128.175781 C 154.578125 128.175781 153.734375 127.335938 153.734375 126.289062 L 153.734375 120.621094 C 153.734375 119.585938 154.578125 118.742188 155.621094 118.742188 C 156.65625 118.742188 157.5 119.585938 157.5 120.621094 L 157.5 126.289062 C 157.5 127.335938 156.65625 128.175781 155.621094 128.175781 " fill-opacity="1" fill-rule="nonzero"/><path fill="#ffffff" d="M 171.628906 128.175781 C 170.585938 128.175781 169.742188 127.335938 169.742188 126.289062 L 169.742188 120.621094 C 169.742188 119.585938 170.585938 118.742188 171.628906 118.742188 C 172.664062 118.742188 173.503906 119.585938 173.503906 120.621094 L 173.503906 126.289062 C 173.503906 127.335938 172.664062 128.175781 171.628906 128.175781 " fill-opacity="1" fill-rule="nonzero"/><path fill="#ffffff" d="M 187.613281 128.175781 C 186.570312 128.175781 185.726562 127.335938 185.726562 126.289062 L 185.726562 120.621094 C 185.726562 119.585938 186.570312 118.742188 187.613281 118.742188 C 188.660156 118.742188 189.5 119.585938 189.5 120.621094 L 189.5 126.289062 C 189.5 127.335938 188.660156 128.175781 187.613281 128.175781 " fill-opacity="1" fill-rule="nonzero"/><path fill="#fbf0f0" d="M 203.621094 128.175781 C 202.578125 128.175781 201.742188 127.335938 201.742188 126.289062 L 201.742188 120.621094 C 201.742188 119.585938 202.578125 118.742188 203.621094 118.742188 C 204.664062 118.742188 205.507812 119.585938 205.507812 120.621094 L 205.507812 126.289062 C 205.507812 127.335938 204.664062 128.175781 203.621094 128.175781 " fill-opacity="1" fill-rule="nonzero"/><path fill="#fbf0f0" d="M 219.625 128.175781 C 218.59375 128.175781 217.75 127.335938 217.75 126.289062 L 217.75 120.621094 C 217.75 119.585938 218.59375 118.742188 219.625 118.742188 C 220.671875 118.742188 221.511719 119.585938 221.511719 120.621094 L 221.511719 126.289062 C 221.511719 127.335938 220.671875 128.175781 219.625 128.175781 " fill-opacity="1" fill-rule="nonzero"/><path fill="#ffffff" d="M 155.621094 141.5 C 154.578125 141.5 153.734375 140.667969 153.734375 139.625 L 153.734375 133.953125 C 153.734375 132.917969 154.578125 132.074219 155.621094 132.074219 C 156.65625 132.074219 157.5 132.917969 157.5 133.953125 L 157.5 139.625 C 157.5 140.667969 156.65625 141.5 155.621094 141.5 " fill-opacity="1" fill-rule="nonzero"/><path fill="#ffffff" d="M 171.628906 141.5 C 170.585938 141.5 169.742188 140.667969 169.742188 139.625 L 169.742188 133.953125 C 169.742188 132.917969 170.585938 132.074219 171.628906 132.074219 C 172.664062 132.074219 173.503906 132.917969 173.503906 133.953125 L 173.503906 139.625 C 173.503906 140.667969 172.664062 141.5 171.628906 141.5 " fill-opacity="1" fill-rule="nonzero"/><path fill="#ffffff" d="M 187.613281 141.5 C 186.570312 141.5 185.726562 140.667969 185.726562 139.625 L 185.726562 133.953125 C 185.726562 132.917969 186.570312 132.074219 187.613281 132.074219 C 188.660156 132.074219 189.5 132.917969 189.5 133.953125 L 189.5 139.625 C 189.5 140.667969 188.660156 141.5 187.613281 141.5 " fill-opacity="1" fill-rule="nonzero"/><path fill="#fbf0f0" d="M 203.621094 141.5 C 202.578125 141.5 201.742188 140.667969 201.742188 139.625 L 201.742188 133.953125 C 201.742188 132.917969 202.578125 132.074219 203.621094 132.074219 C 204.664062 132.074219 205.507812 132.917969 205.507812 133.953125 L 205.507812 139.625 C 205.507812 140.667969 204.664062 141.5 203.621094 141.5 " fill-opacity="1" fill-rule="nonzero"/><path fill="#fbf0f0" d="M 219.625 141.5 C 218.59375 141.5 217.75 140.667969 217.75 139.625 L 217.75 133.953125 C 217.75 132.917969 218.59375 132.074219 219.625 132.074219 C 220.671875 132.074219 221.511719 132.917969 221.511719 133.953125 L 221.511719 139.625 C 221.511719 140.667969 220.671875 141.5 219.625 141.5 " fill-opacity="1" fill-rule="nonzero"/><path fill="#ffffff" d="M 155.621094 154.835938 C 154.578125 154.835938 153.734375 154 153.734375 152.957031 L 153.734375 147.285156 C 153.734375 146.242188 154.578125 145.410156 155.621094 145.410156 C 156.65625 145.410156 157.5 146.242188 157.5 147.285156 L 157.5 152.957031 C 157.5 154 156.65625 154.835938 155.621094 154.835938 " fill-opacity="1" fill-rule="nonzero"/><path fill="#ffffff" d="M 171.628906 154.835938 C 170.585938 154.835938 169.742188 154 169.742188 152.957031 L 169.742188 147.285156 C 169.742188 146.242188 170.585938 145.410156 171.628906 145.410156 C 172.664062 145.410156 173.503906 146.242188 173.503906 147.285156 L 173.503906 152.957031 C 173.503906 154 172.664062 154.835938 171.628906 154.835938 " fill-opacity="1" fill-rule="nonzero"/><path fill="#ffffff" d="M 187.613281 154.835938 C 186.570312 154.835938 185.726562 154 185.726562 152.957031 L 185.726562 147.285156 C 185.726562 146.242188 186.570312 145.410156 187.613281 145.410156 C 188.660156 145.410156 189.5 146.242188 189.5 147.285156 L 189.5 152.957031 C 189.5 154 188.660156 154.835938 187.613281 154.835938 " fill-opacity="1" fill-rule="nonzero"/><path fill="#fbf0f0" d="M 203.621094 154.835938 C 202.578125 154.835938 201.742188 154 201.742188 152.957031 L 201.742188 147.285156 C 201.742188 146.242188 202.578125 145.410156 203.621094 145.410156 C 204.664062 145.410156 205.507812 146.242188 205.507812 147.285156 L 205.507812 152.957031 C 205.507812 154 204.664062 154.835938 203.621094 154.835938 " fill-opacity="1" fill-rule="nonzero"/><path fill="#fbf0f0" d="M 219.625 154.835938 C 218.59375 154.835938 217.75 154 217.75 152.957031 L 217.75 147.285156 C 217.75 146.242188 218.59375 145.410156 219.625 145.410156 C 220.671875 145.410156 221.511719 146.242188 221.511719 147.285156 L 221.511719 152.957031 C 221.511719 154 220.671875 154.835938 219.625 154.835938 " fill-opacity="1" fill-rule="nonzero"/><path fill="#ffffff" d="M 155.621094 168.167969 C 154.578125 168.167969 153.734375 167.335938 153.734375 166.289062 L 153.734375 160.621094 C 153.734375 159.574219 154.578125 158.742188 155.621094 158.742188 C 156.65625 158.742188 157.5 159.574219 157.5 160.621094 L 157.5 166.289062 C 157.5 167.335938 156.65625 168.167969 155.621094 168.167969 " fill-opacity="1" fill-rule="nonzero"/><path fill="#ffffff" d="M 171.628906 168.167969 C 170.585938 168.167969 169.742188 167.335938 169.742188 166.289062 L 169.742188 160.621094 C 169.742188 159.574219 170.585938 158.742188 171.628906 158.742188 C 172.664062 158.742188 173.503906 159.574219 173.503906 160.621094 L 173.503906 166.289062 C 173.503906 167.335938 172.664062 168.167969 171.628906 168.167969 " fill-opacity="1" fill-rule="nonzero"/><path fill="#ffffff" d="M 187.613281 168.167969 C 186.570312 168.167969 185.726562 167.335938 185.726562 166.289062 L 185.726562 160.621094 C 185.726562 159.574219 186.570312 158.742188 187.613281 158.742188 C 188.660156 158.742188 189.5 159.574219 189.5 160.621094 L 189.5 166.289062 C 189.5 167.335938 188.660156 168.167969 187.613281 168.167969 " fill-opacity="1" fill-rule="nonzero"/><path fill="#fbf0f0" d="M 203.621094 168.167969 C 202.578125 168.167969 201.742188 167.335938 201.742188 166.289062 L 201.742188 160.621094 C 201.742188 159.574219 202.578125 158.742188 203.621094 158.742188 C 204.664062 158.742188 205.507812 159.574219 205.507812 160.621094 L 205.507812 166.289062 C 205.507812 167.335938 204.664062 168.167969 203.621094 168.167969 " fill-opacity="1" fill-rule="nonzero"/><path fill="#fbf0f0" d="M 219.625 168.167969 C 218.59375 168.167969 217.75 167.335938 217.75 166.289062 L 217.75 160.621094 C 217.75 159.574219 218.59375 158.742188 219.625 158.742188 C 220.671875 158.742188 221.511719 159.574219 221.511719 160.621094 L 221.511719 166.289062 C 221.511719 167.335938 220.671875 168.167969 219.625 168.167969 " fill-opacity="1" fill-rule="nonzero"/><g fill="#050a30" fill-opacity="1"><g transform="translate(134.722653, 269.268088)"><g><path d="M 13.09375 0.34375 C 11.507812 0.34375 10.085938 0.128906 8.828125 -0.296875 C 7.566406 -0.734375 6.472656 -1.335938 5.546875 -2.109375 C 4.617188 -2.890625 3.847656 -3.800781 3.234375 -4.84375 C 2.617188 -5.882812 2.160156 -7.019531 1.859375 -8.25 C 1.554688 -9.476562 1.40625 -10.753906 1.40625 -12.078125 C 1.40625 -13.398438 1.550781 -14.675781 1.84375 -15.90625 C 2.144531 -17.132812 2.597656 -18.269531 3.203125 -19.3125 C 3.816406 -20.363281 4.582031 -21.28125 5.5 -22.0625 C 6.425781 -22.851562 7.519531 -23.460938 8.78125 -23.890625 C 10.039062 -24.328125 11.46875 -24.546875 13.0625 -24.546875 C 14.644531 -24.546875 16.109375 -24.28125 17.453125 -23.75 C 18.804688 -23.21875 20.003906 -22.4375 21.046875 -21.40625 C 22.085938 -20.375 22.929688 -19.109375 23.578125 -17.609375 L 19.734375 -16 C 19.367188 -17.09375 18.851562 -17.988281 18.1875 -18.6875 C 17.519531 -19.382812 16.75 -19.898438 15.875 -20.234375 C 15 -20.578125 14.046875 -20.75 13.015625 -20.75 C 11.742188 -20.75 10.644531 -20.515625 9.71875 -20.046875 C 8.800781 -19.585938 8.046875 -18.960938 7.453125 -18.171875 C 6.859375 -17.378906 6.414062 -16.472656 6.125 -15.453125 C 5.84375 -14.429688 5.703125 -13.363281 5.703125 -12.25 C 5.703125 -11.050781 5.84375 -9.925781 6.125 -8.875 C 6.414062 -7.820312 6.859375 -6.894531 7.453125 -6.09375 C 8.054688 -5.289062 8.820312 -4.660156 9.75 -4.203125 C 10.675781 -3.753906 11.789062 -3.53125 13.09375 -3.53125 C 14.25 -3.53125 15.304688 -3.773438 16.265625 -4.265625 C 17.222656 -4.753906 18.019531 -5.453125 18.65625 -6.359375 C 19.289062 -7.265625 19.6875 -8.328125 19.84375 -9.546875 L 14.359375 -9.546875 L 14.359375 -13.0625 L 24.046875 -13.0625 L 24.046875 0 L 20.609375 0 L 20.234375 -3.40625 C 19.796875 -2.644531 19.222656 -1.984375 18.515625 -1.421875 C 17.816406 -0.859375 17.003906 -0.421875 16.078125 -0.109375 C 15.160156 0.191406 14.164062 0.34375 13.09375 0.34375 Z M 13.09375 0.34375 "/></g></g></g><g fill="#050a30" fill-opacity="1"><g transform="translate(164.432612, 269.268088)"><g><path d="M 3.109375 0 L 3.109375 -24.140625 L 10.6875 -24.140625 C 11.914062 -24.140625 13.046875 -23.984375 14.078125 -23.671875 C 15.117188 -23.359375 16.019531 -22.894531 16.78125 -22.28125 C 17.550781 -21.675781 18.144531 -20.929688 18.5625 -20.046875 C 18.988281 -19.160156 19.203125 -18.144531 19.203125 -17 C 19.203125 -15.875 18.988281 -14.878906 18.5625 -14.015625 C 18.144531 -13.148438 17.550781 -12.414062 16.78125 -11.8125 C 16.019531 -11.21875 15.117188 -10.769531 14.078125 -10.46875 C 13.046875 -10.164062 11.914062 -10.015625 10.6875 -10.015625 L 7.421875 -10.015625 L 7.421875 0 Z M 7.421875 -14.0625 L 10.6875 -14.0625 C 12.175781 -14.0625 13.25 -14.3125 13.90625 -14.8125 C 14.570312 -15.3125 14.90625 -16.039062 14.90625 -17 C 14.90625 -17.976562 14.566406 -18.738281 13.890625 -19.28125 C 13.222656 -19.820312 12.15625 -20.09375 10.6875 -20.09375 L 7.421875 -20.09375 Z M 7.421875 -14.0625 "/></g></g></g><g fill="#050a30" fill-opacity="1"><g transform="translate(187.871999, 269.268088)"><g><path d="M 3.109375 0 L 3.109375 -24.140625 L 8.953125 -24.140625 L 15.359375 -6.96875 L 21.765625 -24.140625 L 27.625 -24.140625 L 27.625 0 L 23.453125 0 L 23.453125 -18.0625 L 17.46875 -2.109375 L 13.265625 -2.109375 L 7.28125 -18.0625 L 7.28125 0 Z M 3.109375 0 "/></g></g></g><g fill="#050a30" fill-opacity="1"><g transform="translate(222.092669, 269.268088)"><g><path d="M 3.109375 0 L 3.109375 -24.140625 L 7.453125 -24.140625 L 7.453125 -4.109375 L 17.78125 -4.109375 L 17.78125 0 Z M 3.109375 0 "/></g></g></g></svg>