<svg xmlns="http://www.w3.org/2000/svg" xmlns:xlink="http://www.w3.org/1999/xlink" width="500" zoomAndPan="magnify" viewBox="0 0 375 374.999991" height="500" preserveAspectRatio="xMidYMid meet" version="1.0"><defs><clipPath id="8bd7567fd3"><path d="M 261 37.5 L 268 37.5 L 268 96 L 261 96 Z M 261 37.5 " clip-rule="nonzero"/></clipPath><clipPath id="ced83cb090"><path d="M 230 37.5 L 237 37.5 L 237 96 L 230 96 Z M 230 37.5 " clip-rule="nonzero"/></clipPath><clipPath id="ede1f68664"><path d="M 200 37.5 L 207 37.5 L 207 96 L 200 96 Z M 200 37.5 " clip-rule="nonzero"/></clipPath><clipPath id="bd3b0c2fb9"><path d="M 169 37.5 L 176 37.5 L 176 96 L 169 96 Z M 169 37.5 " clip-rule="nonzero"/></clipPath><clipPath id="e98075e42a"><path d="M 138 37.5 L 145 37.5 L 145 96 L 138 96 Z M 138 37.5 " clip-rule="nonzero"/></clipPath><clipPath id="c1be3603d5"><path d="M 107 37.5 L 114 37.5 L 114 96 L 107 96 Z M 107 37.5 " clip-rule="nonzero"/></clipPath><clipPath id="c5466ec8d0"><path d="M 261 280 L 268 280 L 268 337.5 L 261 337.5 Z M 261 280 " clip-rule="nonzero"/></clipPath><clipPath id="5e4d93a662"><path d="M 230 280 L 237 280 L 237 337.5 L 230 337.5 Z M 230 280 " clip-rule="nonzero"/></clipPath><clipPath id="59a3a98787"><path d="M 200 280 L 207 280 L 207 337.5 L 200 337.5 Z M 200 280 " clip-rule="nonzero"/></clipPath><clipPath id="baab75ca60"><path d="M 169 280 L 176 280 L 176 337.5 L 169 337.5 Z M 169 280 " clip-rule="nonzero"/></clipPath><clipPath id="aca86b0784"><path d="M 138 280 L 145 280 L 145 337.5 L 138 337.5 Z M 138 280 " clip-rule="nonzero"/></clipPath><clipPath id="8ba7c22f0b"><path d="M 107 280 L 114 280 L 114 337.5 L 107 337.5 Z M 107 280 " clip-rule="nonzero"/></clipPath><clipPath id="443206ceb2"><path d="M 37.5 107 L 96 107 L 96 114 L 37.5 114 Z M 37.5 107 " clip-rule="nonzero"/></clipPath><clipPath id="b05394e2f3"><path d="M 37.5 138 L 96 138 L 96 145 L 37.5 145 Z M 37.5 138 " clip-rule="nonzero"/></clipPath><clipPath id="ba83e9358a"><path d="M 37.5 169 L 96 169 L 96 176 L 37.5 176 Z M 37.5 169 " clip-rule="nonzero"/></clipPath><clipPath id="d7dd46c343"><path d="M 37.5 200 L 96 200 L 96 206 L 37.5 206 Z M 37.5 200 " clip-rule="nonzero"/></clipPath><clipPath id="88e5ff3d80"><path d="M 37.5 230 L 96 230 L 96 237 L 37.5 237 Z M 37.5 230 " clip-rule="nonzero"/></clipPath><clipPath id="a02db982c5"><path d="M 37.5 261 L 96 261 L 96 268 L 37.5 268 Z M 37.5 261 " clip-rule="nonzero"/></clipPath><clipPath id="48bc116742"><path d="M 280 107 L 337.5 107 L 337.5 114 L 280 114 Z M 280 107 " clip-rule="nonzero"/></clipPath><clipPath id="f5d3162cf3"><path d="M 280 138 L 337.5 138 L 337.5 145 L 280 145 Z M 280 138 " clip-rule="nonzero"/></clipPath><clipPath id="4eed4fc835"><path d="M 280 169 L 337.5 169 L 337.5 176 L 280 176 Z M 280 169 " clip-rule="nonzero"/></clipPath><clipPath id="5c0598ce66"><path d="M 280 200 L 337.5 200 L 337.5 206 L 280 206 Z M 280 200 " clip-rule="nonzero"/></clipPath><clipPath id="44cbb6c3cd"><path d="M 280 230 L 337.5 230 L 337.5 237 L 280 237 Z M 280 230 " clip-rule="nonzero"/></clipPath><clipPath id="655a579b78"><path d="M 280 261 L 337.5 261 L 337.5 268 L 280 268 Z M 280 261 " clip-rule="nonzero"/></clipPath><clipPath id="78440122d8"><path d="M 131.25 131.25 L 243.75 131.25 L 243.75 243.75 L 131.25 243.75 Z M 131.25 131.25 " clip-rule="nonzero"/></clipPath><clipPath id="6984efa1ce"><path d="M 0.25 0.25 L 112.75 0.25 L 112.75 112.75 L 0.25 112.75 Z M 0.25 0.25 " clip-rule="nonzero"/></clipPath><clipPath id="0cbfd2aed5"><rect x="0" width="113" y="0" height="113"/></clipPath></defs><path fill="#37404c" d="M 266.578125 135.667969 L 266.578125 239.683594 C 266.578125 243.066406 263.839844 245.804688 260.457031 245.804688 L 251.957031 245.804688 C 248.574219 245.804688 245.835938 248.546875 245.835938 251.925781 L 245.835938 260.429688 C 245.835938 263.8125 243.097656 266.550781 239.714844 266.550781 L 135.699219 266.550781 C 132.316406 266.550781 129.578125 263.8125 129.578125 260.429688 L 129.578125 251.925781 C 129.578125 248.546875 126.835938 245.804688 123.457031 245.804688 L 114.953125 245.804688 C 111.570312 245.804688 108.832031 243.066406 108.832031 239.683594 L 108.832031 135.667969 C 108.832031 132.285156 111.570312 129.546875 114.953125 129.546875 L 123.457031 129.546875 C 126.835938 129.546875 129.578125 126.808594 129.578125 123.425781 L 129.578125 114.925781 C 129.578125 111.542969 132.316406 108.804688 135.699219 108.804688 L 239.714844 108.804688 C 243.097656 108.804688 245.835938 111.542969 245.835938 114.925781 L 245.835938 123.425781 C 245.835938 126.808594 248.574219 129.546875 251.957031 129.546875 L 260.457031 129.546875 C 263.839844 129.546875 266.578125 132.285156 266.578125 135.667969 " fill-opacity="1" fill-rule="nonzero"/><path fill="#3f76c3" d="M 266.578125 239.683594 L 266.578125 135.667969 C 266.578125 132.285156 263.839844 129.546875 260.457031 129.546875 L 251.957031 129.546875 C 248.574219 129.546875 245.835938 126.808594 245.835938 123.425781 L 245.835938 114.925781 C 245.835938 111.542969 243.097656 108.804688 239.714844 108.804688 L 135.699219 108.804688 C 132.316406 108.804688 129.578125 111.542969 129.578125 114.925781 L 129.578125 123.425781 C 129.578125 126.808594 126.835938 129.546875 123.457031 129.546875 L 114.953125 129.546875 C 111.570312 129.546875 108.832031 132.285156 108.832031 135.667969 L 108.832031 239.683594 C 108.832031 243.066406 111.570312 245.804688 114.953125 245.804688 L 123.457031 245.804688 C 126.835938 245.804688 129.578125 248.546875 129.578125 251.925781 L 129.578125 260.429688 C 129.578125 263.8125 132.316406 266.550781 135.699219 266.550781 L 239.714844 266.550781 C 243.097656 266.550781 245.835938 263.8125 245.835938 260.429688 L 245.835938 251.925781 C 245.835938 248.546875 248.574219 245.804688 251.957031 245.804688 L 260.457031 245.804688 C 263.839844 245.804688 266.578125 243.066406 266.578125 239.683594 Z M 110.777344 299.355469 L 81.910156 299.355469 C 78.644531 299.355469 76.027344 296.738281 76.027344 293.472656 L 76.027344 81.878906 C 76.027344 78.617188 78.644531 75.996094 81.910156 75.996094 L 293.503906 75.996094 C 296.765625 75.996094 299.386719 78.617188 299.386719 81.878906 L 299.386719 293.472656 C 299.386719 296.738281 296.765625 299.355469 293.503906 299.355469 L 110.777344 299.355469 " fill-opacity="1" fill-rule="nonzero"/><path fill="#3f76c3" d="M 293.503906 75.996094 L 187.707031 75.996094 L 187.707031 108.804688 L 239.714844 108.804688 C 243.097656 108.804688 245.835938 111.542969 245.835938 114.925781 L 245.835938 123.425781 C 245.835938 126.808594 248.574219 129.546875 251.957031 129.546875 L 260.457031 129.546875 C 263.839844 129.546875 266.578125 132.285156 266.578125 135.667969 L 266.578125 239.683594 C 266.578125 243.066406 263.839844 245.804688 260.457031 245.804688 L 251.957031 245.804688 C 248.574219 245.804688 245.835938 248.546875 245.835938 251.925781 L 245.835938 260.429688 C 245.835938 263.8125 243.097656 266.550781 239.714844 266.550781 L 187.707031 266.550781 L 187.707031 299.355469 L 293.503906 299.355469 C 296.765625 299.355469 299.386719 296.738281 299.386719 293.472656 L 299.386719 81.878906 C 299.386719 78.617188 296.765625 75.996094 293.503906 75.996094 " fill-opacity="1" fill-rule="nonzero"/><path fill="#37404c" d="M 239.714844 266.550781 C 243.097656 266.550781 245.835938 263.8125 245.835938 260.429688 L 245.835938 251.925781 C 245.835938 248.546875 248.574219 245.804688 251.957031 245.804688 L 260.457031 245.804688 C 263.839844 245.804688 266.578125 243.066406 266.578125 239.683594 L 266.578125 135.667969 C 266.578125 132.285156 263.839844 129.546875 260.457031 129.546875 L 251.957031 129.546875 C 248.574219 129.546875 245.835938 126.808594 245.835938 123.425781 L 245.835938 114.925781 C 245.835938 111.542969 243.097656 108.804688 239.714844 108.804688 L 187.707031 108.804688 L 187.707031 266.550781 L 239.714844 266.550781 " fill-opacity="1" fill-rule="nonzero"/><g clip-path="url(#8bd7567fd3)"><path fill="#37404c" d="M 264.632812 95.183594 C 263.019531 95.183594 261.699219 93.867188 261.699219 92.234375 L 261.699219 40.570312 C 261.699219 38.941406 263.019531 37.621094 264.632812 37.621094 C 266.265625 37.621094 267.582031 38.941406 267.582031 40.570312 L 267.582031 92.234375 C 267.582031 93.867188 266.265625 95.183594 264.632812 95.183594 " fill-opacity="1" fill-rule="nonzero"/></g><g clip-path="url(#ced83cb090)"><path fill="#37404c" d="M 233.863281 95.183594 C 232.230469 95.183594 230.914062 93.867188 230.914062 92.234375 L 230.914062 40.570312 C 230.914062 38.941406 232.230469 37.621094 233.863281 37.621094 C 235.480469 37.621094 236.8125 38.941406 236.8125 40.570312 L 236.8125 92.234375 C 236.8125 93.867188 235.480469 95.183594 233.863281 95.183594 " fill-opacity="1" fill-rule="nonzero"/></g><g clip-path="url(#ede1f68664)"><path fill="#37404c" d="M 203.078125 95.183594 C 201.460938 95.183594 200.144531 93.867188 200.144531 92.234375 L 200.144531 40.570312 C 200.144531 38.941406 201.460938 37.621094 203.078125 37.621094 C 204.707031 37.621094 206.027344 38.941406 206.027344 40.570312 L 206.027344 92.234375 C 206.027344 93.867188 204.707031 95.183594 203.078125 95.183594 " fill-opacity="1" fill-rule="nonzero"/></g><g clip-path="url(#bd3b0c2fb9)"><path fill="#37404c" d="M 172.335938 95.183594 C 170.703125 95.183594 169.386719 93.867188 169.386719 92.234375 L 169.386719 40.570312 C 169.386719 38.941406 170.703125 37.621094 172.335938 37.621094 C 173.953125 37.621094 175.269531 38.941406 175.269531 40.570312 L 175.269531 92.234375 C 175.269531 93.867188 173.953125 95.183594 172.335938 95.183594 " fill-opacity="1" fill-rule="nonzero"/></g><g clip-path="url(#e98075e42a)"><path fill="#37404c" d="M 141.550781 95.183594 C 139.933594 95.183594 138.617188 93.867188 138.617188 92.234375 L 138.617188 40.570312 C 138.617188 38.941406 139.933594 37.621094 141.550781 37.621094 C 143.179688 37.621094 144.5 38.941406 144.5 40.570312 L 144.5 92.234375 C 144.5 93.867188 143.179688 95.183594 141.550781 95.183594 " fill-opacity="1" fill-rule="nonzero"/></g><g clip-path="url(#c1be3603d5)"><path fill="#37404c" d="M 110.777344 95.183594 C 109.148438 95.183594 107.832031 93.867188 107.832031 92.234375 L 107.832031 40.570312 C 107.832031 38.941406 109.148438 37.621094 110.777344 37.621094 C 112.394531 37.621094 113.710938 38.941406 113.710938 40.570312 L 113.710938 92.234375 C 113.710938 93.867188 112.394531 95.183594 110.777344 95.183594 " fill-opacity="1" fill-rule="nonzero"/></g><g clip-path="url(#c5466ec8d0)"><path fill="#37404c" d="M 264.632812 337.761719 C 263.019531 337.761719 261.699219 336.441406 261.699219 334.828125 L 261.699219 283.117188 C 261.699219 281.488281 263.019531 280.183594 264.632812 280.183594 C 266.265625 280.183594 267.582031 281.488281 267.582031 283.117188 L 267.582031 334.828125 C 267.582031 336.441406 266.265625 337.761719 264.632812 337.761719 " fill-opacity="1" fill-rule="nonzero"/></g><g clip-path="url(#5e4d93a662)"><path fill="#37404c" d="M 233.863281 337.761719 C 232.230469 337.761719 230.914062 336.441406 230.914062 334.828125 L 230.914062 283.117188 C 230.914062 281.488281 232.230469 280.183594 233.863281 280.183594 C 235.480469 280.183594 236.8125 281.488281 236.8125 283.117188 L 236.8125 334.828125 C 236.8125 336.441406 235.480469 337.761719 233.863281 337.761719 " fill-opacity="1" fill-rule="nonzero"/></g><g clip-path="url(#59a3a98787)"><path fill="#37404c" d="M 203.078125 337.761719 C 201.460938 337.761719 200.144531 336.441406 200.144531 334.828125 L 200.144531 283.117188 C 200.144531 281.488281 201.460938 280.183594 203.078125 280.183594 C 204.707031 280.183594 206.027344 281.488281 206.027344 283.117188 L 206.027344 334.828125 C 206.027344 336.441406 204.707031 337.761719 203.078125 337.761719 " fill-opacity="1" fill-rule="nonzero"/></g><g clip-path="url(#baab75ca60)"><path fill="#37404c" d="M 172.335938 337.761719 C 170.703125 337.761719 169.386719 336.441406 169.386719 334.828125 L 169.386719 283.117188 C 169.386719 281.488281 170.703125 280.183594 172.335938 280.183594 C 173.953125 280.183594 175.269531 281.488281 175.269531 283.117188 L 175.269531 334.828125 C 175.269531 336.441406 173.953125 337.761719 172.335938 337.761719 " fill-opacity="1" fill-rule="nonzero"/></g><g clip-path="url(#aca86b0784)"><path fill="#37404c" d="M 141.550781 337.761719 C 139.933594 337.761719 138.617188 336.441406 138.617188 334.828125 L 138.617188 283.117188 C 138.617188 281.488281 139.933594 280.183594 141.550781 280.183594 C 143.179688 280.183594 144.5 281.488281 144.5 283.117188 L 144.5 334.828125 C 144.5 336.441406 143.179688 337.761719 141.550781 337.761719 " fill-opacity="1" fill-rule="nonzero"/></g><g clip-path="url(#8ba7c22f0b)"><path fill="#37404c" d="M 110.777344 337.761719 C 109.148438 337.761719 107.832031 336.441406 107.832031 334.828125 L 107.832031 283.117188 C 107.832031 281.488281 109.148438 280.183594 110.777344 280.183594 C 112.394531 280.183594 113.710938 281.488281 113.710938 283.117188 L 113.710938 334.828125 C 113.710938 336.441406 112.394531 337.761719 110.777344 337.761719 " fill-opacity="1" fill-rule="nonzero"/></g><g clip-path="url(#443206ceb2)"><path fill="#37404c" d="M 92.265625 113.683594 L 40.570312 113.683594 C 38.941406 113.683594 37.621094 112.367188 37.621094 110.75 C 37.621094 109.117188 38.941406 107.800781 40.570312 107.800781 L 92.265625 107.800781 C 93.898438 107.800781 95.214844 109.117188 95.214844 110.75 C 95.214844 112.367188 93.898438 113.683594 92.265625 113.683594 " fill-opacity="1" fill-rule="nonzero"/></g><g clip-path="url(#b05394e2f3)"><path fill="#37404c" d="M 92.265625 144.46875 L 40.570312 144.46875 C 38.941406 144.46875 37.621094 143.152344 37.621094 141.519531 C 37.621094 139.902344 38.941406 138.585938 40.570312 138.585938 L 92.265625 138.585938 C 93.898438 138.585938 95.214844 139.902344 95.214844 141.519531 C 95.214844 143.152344 93.898438 144.46875 92.265625 144.46875 " fill-opacity="1" fill-rule="nonzero"/></g><g clip-path="url(#ba83e9358a)"><path fill="#37404c" d="M 92.265625 175.238281 L 40.570312 175.238281 C 38.941406 175.238281 37.621094 173.921875 37.621094 172.304688 C 37.621094 170.675781 38.941406 169.359375 40.570312 169.359375 L 92.265625 169.359375 C 93.898438 169.359375 95.214844 170.675781 95.214844 172.304688 C 95.214844 173.921875 93.898438 175.238281 92.265625 175.238281 " fill-opacity="1" fill-rule="nonzero"/></g><g clip-path="url(#d7dd46c343)"><path fill="#37404c" d="M 92.265625 205.996094 L 40.570312 205.996094 C 38.941406 205.996094 37.621094 204.679688 37.621094 203.046875 C 37.621094 201.429688 38.941406 200.113281 40.570312 200.113281 L 92.265625 200.113281 C 93.898438 200.113281 95.214844 201.429688 95.214844 203.046875 C 95.214844 204.679688 93.898438 205.996094 92.265625 205.996094 " fill-opacity="1" fill-rule="nonzero"/></g><g clip-path="url(#88e5ff3d80)"><path fill="#37404c" d="M 92.265625 236.765625 L 40.570312 236.765625 C 38.941406 236.765625 37.621094 235.464844 37.621094 233.832031 C 37.621094 232.203125 38.941406 230.886719 40.570312 230.886719 L 92.265625 230.886719 C 93.898438 230.886719 95.214844 232.203125 95.214844 233.832031 C 95.214844 235.464844 93.898438 236.765625 92.265625 236.765625 " fill-opacity="1" fill-rule="nonzero"/></g><g clip-path="url(#a02db982c5)"><path fill="#37404c" d="M 92.265625 267.550781 L 40.570312 267.550781 C 38.941406 267.550781 37.621094 266.234375 37.621094 264.605469 C 37.621094 262.988281 38.941406 261.671875 40.570312 261.671875 L 92.265625 261.671875 C 93.898438 261.671875 95.214844 262.988281 95.214844 264.605469 C 95.214844 266.234375 93.898438 267.550781 92.265625 267.550781 " fill-opacity="1" fill-rule="nonzero"/></g><g clip-path="url(#48bc116742)"><path fill="#37404c" d="M 334.828125 113.683594 L 283.148438 113.683594 C 281.515625 113.683594 280.199219 112.367188 280.199219 110.75 C 280.199219 109.117188 281.515625 107.800781 283.148438 107.800781 L 334.828125 107.800781 C 336.441406 107.800781 337.761719 109.117188 337.761719 110.75 C 337.761719 112.367188 336.441406 113.683594 334.828125 113.683594 " fill-opacity="1" fill-rule="nonzero"/></g><g clip-path="url(#f5d3162cf3)"><path fill="#37404c" d="M 334.828125 144.46875 L 283.148438 144.46875 C 281.515625 144.46875 280.199219 143.152344 280.199219 141.519531 C 280.199219 139.902344 281.515625 138.585938 283.148438 138.585938 L 334.828125 138.585938 C 336.441406 138.585938 337.761719 139.902344 337.761719 141.519531 C 337.761719 143.152344 336.441406 144.46875 334.828125 144.46875 " fill-opacity="1" fill-rule="nonzero"/></g><g clip-path="url(#4eed4fc835)"><path fill="#37404c" d="M 334.828125 175.238281 L 283.148438 175.238281 C 281.515625 175.238281 280.199219 173.921875 280.199219 172.304688 C 280.199219 170.675781 281.515625 169.359375 283.148438 169.359375 L 334.828125 169.359375 C 336.441406 169.359375 337.761719 170.675781 337.761719 172.304688 C 337.761719 173.921875 336.441406 175.238281 334.828125 175.238281 " fill-opacity="1" fill-rule="nonzero"/></g><g clip-path="url(#5c0598ce66)"><path fill="#37404c" d="M 334.828125 205.996094 L 283.148438 205.996094 C 281.515625 205.996094 280.199219 204.679688 280.199219 203.046875 C 280.199219 201.429688 281.515625 200.113281 283.148438 200.113281 L 334.828125 200.113281 C 336.441406 200.113281 337.761719 201.429688 337.761719 203.046875 C 337.761719 204.679688 336.441406 205.996094 334.828125 205.996094 " fill-opacity="1" fill-rule="nonzero"/></g><g clip-path="url(#44cbb6c3cd)"><path fill="#37404c" d="M 334.828125 236.765625 L 283.148438 236.765625 C 281.515625 236.765625 280.199219 235.464844 280.199219 233.832031 C 280.199219 232.203125 281.515625 230.886719 283.148438 230.886719 L 334.828125 230.886719 C 336.441406 230.886719 337.761719 232.203125 337.761719 233.832031 C 337.761719 235.464844 336.441406 236.765625 334.828125 236.765625 " fill-opacity="1" fill-rule="nonzero"/></g><g clip-path="url(#655a579b78)"><path fill="#37404c" d="M 334.828125 267.550781 L 283.148438 267.550781 C 281.515625 267.550781 280.199219 266.234375 280.199219 264.605469 C 280.199219 262.988281 281.515625 261.671875 283.148438 261.671875 L 334.828125 261.671875 C 336.441406 261.671875 337.761719 262.988281 337.761719 264.605469 C 337.761719 266.234375 336.441406 267.550781 334.828125 267.550781 " fill-opacity="1" fill-rule="nonzero"/></g><path fill="#ffffff" d="M 137.703125 153.386719 C 136.070312 153.386719 134.753906 152.070312 134.753906 150.441406 L 134.753906 141.578125 C 134.753906 139.964844 136.070312 138.644531 137.703125 138.644531 C 139.320312 138.644531 140.636719 139.964844 140.636719 141.578125 L 140.636719 150.441406 C 140.636719 152.070312 139.320312 153.386719 137.703125 153.386719 " fill-opacity="1" fill-rule="nonzero"/><path fill="#ffffff" d="M 162.710938 153.386719 C 161.082031 153.386719 159.765625 152.070312 159.765625 150.441406 L 159.765625 141.578125 C 159.765625 139.964844 161.082031 138.644531 162.710938 138.644531 C 164.328125 138.644531 165.644531 139.964844 165.644531 141.578125 L 165.644531 150.441406 C 165.644531 152.070312 164.328125 153.386719 162.710938 153.386719 " fill-opacity="1" fill-rule="nonzero"/><path fill="#ffffff" d="M 187.691406 153.386719 C 186.058594 153.386719 184.742188 152.070312 184.742188 150.441406 L 184.742188 141.578125 C 184.742188 139.964844 186.058594 138.644531 187.691406 138.644531 C 189.324219 138.644531 190.640625 139.964844 190.640625 141.578125 L 190.640625 150.441406 C 190.640625 152.070312 189.324219 153.386719 187.691406 153.386719 " fill-opacity="1" fill-rule="nonzero"/><path fill="#fbf0f0" d="M 212.699219 153.386719 C 211.070312 153.386719 209.765625 152.070312 209.765625 150.441406 L 209.765625 141.578125 C 209.765625 139.964844 211.070312 138.644531 212.699219 138.644531 C 214.332031 138.644531 215.648438 139.964844 215.648438 141.578125 L 215.648438 150.441406 C 215.648438 152.070312 214.332031 153.386719 212.699219 153.386719 " fill-opacity="1" fill-rule="nonzero"/><path fill="#fbf0f0" d="M 237.710938 153.386719 C 236.09375 153.386719 234.777344 152.070312 234.777344 150.441406 L 234.777344 141.578125 C 234.777344 139.964844 236.09375 138.644531 237.710938 138.644531 C 239.339844 138.644531 240.65625 139.964844 240.65625 141.578125 L 240.65625 150.441406 C 240.65625 152.070312 239.339844 153.386719 237.710938 153.386719 " fill-opacity="1" fill-rule="nonzero"/><path fill="#ffffff" d="M 137.703125 174.222656 C 136.070312 174.222656 134.753906 172.90625 134.753906 171.273438 L 134.753906 162.414062 C 134.753906 160.796875 136.070312 159.480469 137.703125 159.480469 C 139.320312 159.480469 140.636719 160.796875 140.636719 162.414062 L 140.636719 171.273438 C 140.636719 172.90625 139.320312 174.222656 137.703125 174.222656 " fill-opacity="1" fill-rule="nonzero"/><path fill="#ffffff" d="M 162.710938 174.222656 C 161.082031 174.222656 159.765625 172.90625 159.765625 171.273438 L 159.765625 162.414062 C 159.765625 160.796875 161.082031 159.480469 162.710938 159.480469 C 164.328125 159.480469 165.644531 160.796875 165.644531 162.414062 L 165.644531 171.273438 C 165.644531 172.90625 164.328125 174.222656 162.710938 174.222656 " fill-opacity="1" fill-rule="nonzero"/><path fill="#ffffff" d="M 187.691406 174.222656 C 186.058594 174.222656 184.742188 172.90625 184.742188 171.273438 L 184.742188 162.414062 C 184.742188 160.796875 186.058594 159.480469 187.691406 159.480469 C 189.324219 159.480469 190.640625 160.796875 190.640625 162.414062 L 190.640625 171.273438 C 190.640625 172.90625 189.324219 174.222656 187.691406 174.222656 " fill-opacity="1" fill-rule="nonzero"/><path fill="#fbf0f0" d="M 212.699219 174.222656 C 211.070312 174.222656 209.765625 172.90625 209.765625 171.273438 L 209.765625 162.414062 C 209.765625 160.796875 211.070312 159.480469 212.699219 159.480469 C 214.332031 159.480469 215.648438 160.796875 215.648438 162.414062 L 215.648438 171.273438 C 215.648438 172.90625 214.332031 174.222656 212.699219 174.222656 " fill-opacity="1" fill-rule="nonzero"/><path fill="#fbf0f0" d="M 237.710938 174.222656 C 236.09375 174.222656 234.777344 172.90625 234.777344 171.273438 L 234.777344 162.414062 C 234.777344 160.796875 236.09375 159.480469 237.710938 159.480469 C 239.339844 159.480469 240.65625 160.796875 240.65625 162.414062 L 240.65625 171.273438 C 240.65625 172.90625 239.339844 174.222656 237.710938 174.222656 " fill-opacity="1" fill-rule="nonzero"/><path fill="#ffffff" d="M 137.703125 195.039062 C 136.070312 195.039062 134.753906 193.738281 134.753906 192.105469 L 134.753906 183.246094 C 134.753906 181.628906 136.070312 180.3125 137.703125 180.3125 C 139.320312 180.3125 140.636719 181.628906 140.636719 183.246094 L 140.636719 192.105469 C 140.636719 193.738281 139.320312 195.039062 137.703125 195.039062 " fill-opacity="1" fill-rule="nonzero"/><path fill="#ffffff" d="M 162.710938 195.039062 C 161.082031 195.039062 159.765625 193.738281 159.765625 192.105469 L 159.765625 183.246094 C 159.765625 181.628906 161.082031 180.3125 162.710938 180.3125 C 164.328125 180.3125 165.644531 181.628906 165.644531 183.246094 L 165.644531 192.105469 C 165.644531 193.738281 164.328125 195.039062 162.710938 195.039062 " fill-opacity="1" fill-rule="nonzero"/><path fill="#ffffff" d="M 187.691406 195.039062 C 186.058594 195.039062 184.742188 193.738281 184.742188 192.105469 L 184.742188 183.246094 C 184.742188 181.628906 186.058594 180.3125 187.691406 180.3125 C 189.324219 180.3125 190.640625 181.628906 190.640625 183.246094 L 190.640625 192.105469 C 190.640625 193.738281 189.324219 195.039062 187.691406 195.039062 " fill-opacity="1" fill-rule="nonzero"/><path fill="#fbf0f0" d="M 212.699219 195.039062 C 211.070312 195.039062 209.765625 193.738281 209.765625 192.105469 L 209.765625 183.246094 C 209.765625 181.628906 211.070312 180.3125 212.699219 180.3125 C 214.332031 180.3125 215.648438 181.628906 215.648438 183.246094 L 215.648438 192.105469 C 215.648438 193.738281 214.332031 195.039062 212.699219 195.039062 " fill-opacity="1" fill-rule="nonzero"/><path fill="#fbf0f0" d="M 237.710938 195.039062 C 236.09375 195.039062 234.777344 193.738281 234.777344 192.105469 L 234.777344 183.246094 C 234.777344 181.628906 236.09375 180.3125 237.710938 180.3125 C 239.339844 180.3125 240.65625 181.628906 240.65625 183.246094 L 240.65625 192.105469 C 240.65625 193.738281 239.339844 195.039062 237.710938 195.039062 " fill-opacity="1" fill-rule="nonzero"/><path fill="#ffffff" d="M 137.703125 215.875 C 136.070312 215.875 134.753906 214.570312 134.753906 212.941406 L 134.753906 204.078125 C 134.753906 202.449219 136.070312 201.144531 137.703125 201.144531 C 139.320312 201.144531 140.636719 202.449219 140.636719 204.078125 L 140.636719 212.941406 C 140.636719 214.570312 139.320312 215.875 137.703125 215.875 " fill-opacity="1" fill-rule="nonzero"/><path fill="#ffffff" d="M 162.710938 215.875 C 161.082031 215.875 159.765625 214.570312 159.765625 212.941406 L 159.765625 204.078125 C 159.765625 202.449219 161.082031 201.144531 162.710938 201.144531 C 164.328125 201.144531 165.644531 202.449219 165.644531 204.078125 L 165.644531 212.941406 C 165.644531 214.570312 164.328125 215.875 162.710938 215.875 " fill-opacity="1" fill-rule="nonzero"/><path fill="#ffffff" d="M 187.691406 215.875 C 186.058594 215.875 184.742188 214.570312 184.742188 212.941406 L 184.742188 204.078125 C 184.742188 202.449219 186.058594 201.144531 187.691406 201.144531 C 189.324219 201.144531 190.640625 202.449219 190.640625 204.078125 L 190.640625 212.941406 C 190.640625 214.570312 189.324219 215.875 187.691406 215.875 " fill-opacity="1" fill-rule="nonzero"/><path fill="#fbf0f0" d="M 212.699219 215.875 C 211.070312 215.875 209.765625 214.570312 209.765625 212.941406 L 209.765625 204.078125 C 209.765625 202.449219 211.070312 201.144531 212.699219 201.144531 C 214.332031 201.144531 215.648438 202.449219 215.648438 204.078125 L 215.648438 212.941406 C 215.648438 214.570312 214.332031 215.875 212.699219 215.875 " fill-opacity="1" fill-rule="nonzero"/><path fill="#fbf0f0" d="M 237.710938 215.875 C 236.09375 215.875 234.777344 214.570312 234.777344 212.941406 L 234.777344 204.078125 C 234.777344 202.449219 236.09375 201.144531 237.710938 201.144531 C 239.339844 201.144531 240.65625 202.449219 240.65625 204.078125 L 240.65625 212.941406 C 240.65625 214.570312 239.339844 215.875 237.710938 215.875 " fill-opacity="1" fill-rule="nonzero"/><path fill="#ffffff" d="M 137.703125 236.707031 C 136.070312 236.707031 134.753906 235.40625 134.753906 233.773438 L 134.753906 224.914062 C 134.753906 223.28125 136.070312 221.980469 137.703125 221.980469 C 139.320312 221.980469 140.636719 223.28125 140.636719 224.914062 L 140.636719 233.773438 C 140.636719 235.40625 139.320312 236.707031 137.703125 236.707031 " fill-opacity="1" fill-rule="nonzero"/><path fill="#ffffff" d="M 162.710938 236.707031 C 161.082031 236.707031 159.765625 235.40625 159.765625 233.773438 L 159.765625 224.914062 C 159.765625 223.28125 161.082031 221.980469 162.710938 221.980469 C 164.328125 221.980469 165.644531 223.28125 165.644531 224.914062 L 165.644531 233.773438 C 165.644531 235.40625 164.328125 236.707031 162.710938 236.707031 " fill-opacity="1" fill-rule="nonzero"/><path fill="#ffffff" d="M 187.691406 236.707031 C 186.058594 236.707031 184.742188 235.40625 184.742188 233.773438 L 184.742188 224.914062 C 184.742188 223.28125 186.058594 221.980469 187.691406 221.980469 C 189.324219 221.980469 190.640625 223.28125 190.640625 224.914062 L 190.640625 233.773438 C 190.640625 235.40625 189.324219 236.707031 187.691406 236.707031 " fill-opacity="1" fill-rule="nonzero"/><path fill="#fbf0f0" d="M 212.699219 236.707031 C 211.070312 236.707031 209.765625 235.40625 209.765625 233.773438 L 209.765625 224.914062 C 209.765625 223.28125 211.070312 221.980469 212.699219 221.980469 C 214.332031 221.980469 215.648438 223.28125 215.648438 224.914062 L 215.648438 233.773438 C 215.648438 235.40625 214.332031 236.707031 212.699219 236.707031 " fill-opacity="1" fill-rule="nonzero"/><path fill="#fbf0f0" d="M 237.710938 236.707031 C 236.09375 236.707031 234.777344 235.40625 234.777344 233.773438 L 234.777344 224.914062 C 234.777344 223.28125 236.09375 221.980469 237.710938 221.980469 C 239.339844 221.980469 240.65625 223.28125 240.65625 224.914062 L 240.65625 233.773438 C 240.65625 235.40625 239.339844 236.707031 237.710938 236.707031 " fill-opacity="1" fill-rule="nonzero"/><g clip-path="url(#78440122d8)"><g transform="matrix(1, 0, 0, 1, 131, 131)"><g clip-path="url(#0cbfd2aed5)"><g clip-path="url(#6984efa1ce)"><path fill="#2191e5" d="M 0.25 0.25 L 112.75 0.25 L 112.75 112.75 L 0.25 112.75 Z M 0.25 0.25 " fill-opacity="1" fill-rule="nonzero"/></g></g></g></g></svg>